<svg width="100" height="79" viewBox="0 0 100 79" fill="none" xmlns="http://www.w3.org/2000/svg">
<g clip-path="url(#clip0_24_2)">
<path d="M98.6181 11.355L88.3615 19.4501L85.8783 15.0256L96.1367 6.92842L94.7513 4.46352L85.4766 2.25949L77.5958 8.47514L75.7308 19.483L75.8122 19.6288L71.7774 22.6935C71.4311 22.332 71.0847 21.9773 70.7384 21.6295C71.0847 19.5939 70.0734 17.3529 68.3244 16.3751C66.9391 15.5987 65.4083 15.7836 64.3416 16.7367C61.2701 14.941 57.9716 13.7538 54.5768 13.2221C54.2546 12.2833 53.708 11.4767 53.0044 10.9016C52.3008 10.3264 51.4708 10.0078 50.6165 9.98489C48.6822 9.91505 46.9696 11.2646 46.3341 13.2221C42.9354 13.7543 39.6332 14.9436 36.5588 16.7428C35.4939 15.7938 33.9613 15.6131 32.5864 16.3875C30.8392 17.3652 29.8365 19.6 30.1707 21.6336C29.8019 21.9931 29.4417 22.3607 29.0867 22.7387L24.981 19.6226L25.6944 18.3491L23.4848 14.8859C26.0568 11.5771 29.3546 9.18298 33.0089 7.97189L34.4757 7.48507L31.1266 0L30.2608 0.166381C19.3825 2.25949 11.377 8.38271 6.46256 18.384L6.20454 18.9078L6.33788 19.4953C6.99591 22.3936 7.13272 24.2957 7.09289 25.4932L5.34218 24.1108L0 33.6869L9.96918 41.5664L15.3114 31.9985L13.4741 30.5463C14.9165 29.6466 16.5685 29.3713 18.4838 29.7082L19.2526 29.8417L19.9453 28.6093L23.0467 31.1522C20.2653 36.265 18.4064 42.0054 17.5868 48.0121C16.5149 48.5051 14.759 49.6102 14.5494 51.6191C14.2654 54.3448 17.1019 56.251 18.0335 56.8796C19.7548 58.036 21.0449 58.8227 21.9886 59.3958L22.8146 59.9032L14.7849 65.9977C13.2091 67.1911 12.1112 68.972 11.7718 70.8823C11.6412 71.5496 11.6248 72.2411 11.7235 72.9161C11.8223 73.5911 12.0342 74.2357 12.3467 74.8117L13.4273 76.7384C13.7552 77.3013 14.1748 77.7805 14.6614 78.1477C15.1479 78.515 15.6916 78.7629 16.2603 78.8767C16.6064 78.9534 16.9577 78.9919 17.3097 78.9918C18.7135 78.9639 20.0772 78.4325 21.2215 77.4677L30.834 69.5902C31.6385 70.1943 32.4897 70.706 33.3761 71.1185C37.139 72.8912 42.5539 73.7189 50.4069 73.7189C58.26 73.7189 63.6749 72.8973 67.4378 71.1185C68.321 70.7072 69.1692 70.1976 69.9713 69.5964L79.5751 77.4677C80.7198 78.4329 82.0843 78.9643 83.4886 78.9918C83.8401 78.992 84.1908 78.9534 84.5363 78.8767C85.1058 78.7621 85.6502 78.5131 86.1371 78.1444C86.624 77.7757 87.0436 77.2948 87.371 76.7302L88.4516 74.8035C88.7632 74.227 88.9744 73.5823 89.0728 72.9075C89.1713 72.2326 89.1549 71.5413 89.0247 70.874C88.6784 68.9638 87.5892 67.1767 86.0151 65.9915L77.9958 59.897C78.2451 59.7409 78.5153 59.5725 78.8304 59.3835C79.7725 58.8104 81.0643 58.0237 82.7856 56.8673C83.7172 56.2387 86.5536 54.3325 86.2679 51.6068C86.0653 49.6513 84.3977 48.5544 83.3241 48.0429C82.5036 41.999 80.6318 36.2238 77.8278 31.0844L80.8548 28.6031L80.9777 28.8229L90.2594 31.0351L98.1402 24.8154L100.003 13.8075L98.6181 11.355ZM9.28171 37.5158L3.39752 32.8653L6.02965 28.1532L7.20718 29.0837L7.23662 29.1043C7.24396 29.1123 7.25211 29.1192 7.26086 29.1248L7.28164 29.1413L10.551 31.7253C10.5874 31.7561 10.6237 31.7869 10.6618 31.8136L11.9138 32.8037L9.28171 37.5158ZM11.2298 28.7571L9.37349 27.2885C9.66787 25.75 9.68172 23.2748 8.84013 19.3289C13.3078 10.558 20.1721 5.27694 29.7932 3.20848L30.9084 5.70008C27.0745 7.2961 23.7376 10.0321 20.9704 13.8507L20.3245 14.7401L22.6848 18.458L18.056 26.7031C15.4672 26.436 13.1779 27.1262 11.2298 28.7571ZM67.2699 19.0003C68.0093 19.4111 68.482 20.3683 68.3089 21.116C68.2846 21.1817 68.2448 21.2844 68.1946 21.422C68.1842 21.4446 68.1755 21.4693 68.1651 21.496C68.1547 21.5227 68.1651 21.496 68.1651 21.496C68.1601 21.5107 68.1543 21.5251 68.1478 21.5391C67.7513 22.5661 66.8647 24.8256 65.7893 27.2289C65.4967 27.8842 65.1919 28.5497 64.8784 29.207C64.296 30.4512 63.6603 31.6592 62.9736 32.8263C62.281 33.9684 61.8169 34.5414 61.5277 34.827C61.5168 34.5191 61.5261 34.2108 61.5554 33.9047C61.6246 33.083 61.8203 31.8136 62.2913 29.8889C62.4472 29.2501 62.6377 28.5374 62.8576 27.7445C63.8706 24.1437 65.1538 20.5655 65.5226 19.5549C65.5573 19.4583 65.5884 19.3741 65.6179 19.296L65.63 19.2755C65.933 18.7784 66.6361 18.6531 67.2699 19.0085V19.0003ZM50.5264 12.8935C51.4563 12.9325 52.2581 13.7007 52.3655 14.6579C52.3655 14.7668 52.3655 14.8941 52.3655 15.0318C52.3568 16.369 52.2979 21.0872 51.9464 25.6391C51.4806 31.6534 50.7862 33.7095 50.4502 34.3771C50.1195 33.7198 49.4372 31.7068 48.9731 25.8814C48.6268 21.4857 48.5506 16.9482 48.535 15.2002C48.535 14.9414 48.535 14.7565 48.535 14.6579C48.6597 13.6412 49.5342 12.8627 50.5264 12.8935ZM33.6254 19.0208C34.2557 18.6696 34.9519 18.7907 35.2601 19.2899C35.2676 19.3003 35.2745 19.3113 35.2809 19.3228C35.3086 19.3967 35.3415 19.483 35.3744 19.5754C35.7432 20.5881 37.0264 24.1663 38.0394 27.7671C38.2715 28.5887 38.4637 29.3261 38.623 29.9855C39.094 31.9184 39.2827 33.1816 39.3451 33.9909C39.3697 34.2755 39.3773 34.5617 39.3676 34.8475C39.0888 34.5723 38.6403 34.0259 37.9927 32.9639C37.2791 31.7638 36.6201 30.5193 36.0186 29.2358C35.7207 28.6093 35.4281 27.9745 35.1527 27.3501C34.0531 24.8975 33.1475 22.5949 32.7457 21.5679L32.7319 21.5309C32.7232 21.5083 32.7146 21.4878 32.7076 21.4672L32.5847 21.1427C32.4219 20.3909 32.8877 19.4357 33.6254 19.0208ZM21.2994 26.1854L23.6181 22.0506L27.2546 24.8174C26.2497 26.0601 25.311 27.3759 24.4441 28.7571L21.2994 26.1854ZM19.8189 75.0726C18.8353 75.8798 17.6768 76.2311 16.7157 76.0134C16.4678 75.9687 16.2297 75.8665 16.0151 75.7124C15.8006 75.5584 15.6138 75.3556 15.4655 75.1157L14.3849 73.189C14.1269 72.6756 14.051 72.0618 14.1737 71.4821C14.3728 70.3482 15.0966 69.2226 16.1045 68.4502L24.9879 61.7005C25.4624 62.3044 25.9264 63.1117 26.6278 64.4119C27.2514 65.6034 27.9881 66.7061 28.8235 67.6984L19.8189 75.0726ZM84.6852 68.44C85.693 69.202 86.4169 70.3359 86.616 71.4697C86.6784 71.7585 86.6915 72.0592 86.6547 72.354C86.6178 72.6489 86.5316 72.9321 86.4013 73.1869L85.3207 75.1137C85.1722 75.3538 84.9851 75.5567 84.7703 75.7107C84.5554 75.8648 84.317 75.9669 84.0687 76.0113C83.1094 76.229 81.9492 75.8778 80.9638 75.0685L71.9748 67.7005C72.8129 66.7041 73.5514 65.5965 74.1757 64.3996C74.8684 63.1035 75.3394 62.2962 75.8087 61.6944L84.6852 68.44ZM83.8332 51.9683C83.8332 52.0011 83.8159 52.8289 81.5821 54.3387C79.9058 55.4643 78.6919 56.2038 77.7153 56.8036C76.8702 57.3192 76.2174 57.7238 75.6667 58.1305C74.9311 58.6569 74.2779 59.3303 73.7359 60.1209C73.1539 60.9891 72.6156 61.8972 72.1237 62.8405C71.519 64.0184 70.7755 65.0877 69.9158 66.0161C69.253 66.7057 68.5193 67.293 67.7322 67.7642C64.6983 69.6128 59.6869 70.8145 50.4156 70.8145C41.1443 70.8145 36.1138 69.6128 33.0747 67.758C32.288 67.2864 31.5549 66.6983 30.8928 66.0079C30.0359 65.0817 29.2948 64.0151 28.6919 62.8405C28.1987 61.8937 27.658 60.9828 27.0728 60.1127C26.5318 59.3256 25.8804 58.655 25.1472 58.1305C24.5983 57.7197 23.9472 57.3233 23.1038 56.8097C22.1289 56.2141 20.915 55.4746 19.2388 54.3448C16.9634 52.8125 16.9876 51.9827 16.9876 51.9744C17.0205 51.654 17.663 51.124 18.3989 50.7646C19.4621 51.7156 22.1791 53.969 26.3992 56.2243C26.6405 56.3531 26.8887 56.4831 27.1438 56.6146C27.9992 57.0521 28.9361 57.4979 29.9508 57.9374C32.4386 59.0133 34.9869 59.8809 37.5771 60.5338C38.6697 60.8111 39.8109 61.0596 40.9954 61.2712C43.9608 61.8033 46.9558 62.0698 49.955 62.0682C53.2029 62.0683 56.4457 61.7606 59.6523 61.148C60.8246 60.9261 61.9554 60.6694 63.0411 60.388C65.6258 59.7192 68.171 58.8512 70.6605 57.7895C71.6804 57.3561 72.6259 56.9145 73.49 56.4832L73.9939 56.2305C78.4218 53.971 81.3275 51.7115 82.4531 50.779C83.1752 51.1466 83.8003 51.6561 83.8332 51.9683ZM80.8894 48.5071C79.7603 49.4315 77.0035 51.5246 72.9237 53.5951C72.309 53.9073 71.6458 54.2298 70.9393 54.5523C70.0336 54.9631 69.0535 55.3739 68.0041 55.7848C65.4536 56.7598 62.8501 57.5277 60.2116 58.0833C59.067 58.3257 57.8773 58.5352 56.6479 58.6995C54.4261 59.0036 52.1915 59.1565 49.955 59.1576C47.9718 59.158 45.9899 59.0373 44.0171 58.796C42.7686 58.642 41.5651 58.4448 40.4101 58.2127C37.7557 57.6824 35.1379 56.921 32.5778 55.9347C31.5388 55.5239 30.5586 55.1131 29.6599 54.7023C28.8807 54.3387 28.1568 53.9751 27.4919 53.6218C23.6095 51.5677 21.0414 49.4726 19.9955 48.5523C20.7507 42.9461 22.4752 37.5856 25.0606 32.8078C25.5039 31.9862 25.9715 31.1899 26.4633 30.4189C27.3556 29.0106 28.3281 27.6764 29.3742 26.4258C29.9514 25.7411 30.55 25.0797 31.1699 24.4415C31.7085 25.7808 32.4531 27.5719 33.286 29.398C33.4592 29.7903 33.6497 30.1868 33.8367 30.5791C36.5675 36.3305 37.9927 37.5014 38.9191 37.8855C39.1592 37.9878 39.4121 38.0413 39.6672 38.0437C39.9816 38.0439 40.2914 37.9552 40.5711 37.7848C41.1876 37.411 41.5789 36.7783 41.7434 35.8232C41.8976 34.9358 41.8577 33.7691 41.6222 32.2737C41.3612 30.7241 41.02 29.195 40.6005 27.6952C39.7018 24.3573 38.5225 20.9167 37.9061 19.2057C40.4942 17.7303 43.2529 16.7196 46.0916 16.2067C46.1263 18.61 46.2406 23.018 46.6111 27.1426C46.8622 29.9259 47.193 32.1464 47.5965 33.7383C47.8337 34.677 48.5575 37.5322 50.4485 37.5322C52.3395 37.5322 53.0858 34.6051 53.3231 33.6438C53.7283 32.0005 54.059 29.7411 54.3084 26.892C54.6547 22.825 54.7707 18.4703 54.8054 16.2108C57.643 16.7214 60.4007 17.7308 62.9875 19.2057C62.3745 20.9147 61.1935 24.3511 60.2965 27.6849C59.8842 29.1618 59.5471 30.6667 59.2869 32.1916C59.1483 32.9936 59.073 33.8091 59.0618 34.6277C59.0589 35.0066 59.0868 35.3849 59.1449 35.7575C59.3025 36.7434 59.6973 37.4007 60.3259 37.7746C60.6057 37.9444 60.9156 38.0324 61.2298 38.0313C61.4843 38.0297 61.7366 37.9769 61.9762 37.8752C62.9095 37.4911 64.3295 36.3121 67.0603 30.5668C67.2612 30.1416 67.4604 29.7164 67.6543 29.2912C68.4682 27.5021 69.1955 25.7541 69.7236 24.4374C70.3309 25.0577 70.9173 25.7062 71.483 26.3826C72.5311 27.6306 73.5054 28.9627 74.3991 30.3696C74.8909 31.1419 75.359 31.9376 75.8035 32.7564C78.4012 37.5338 80.1354 42.8984 80.8963 48.5113L80.8894 48.5071ZM76.4182 28.7058C75.5473 27.3255 74.6046 26.0111 73.5956 24.7702L77.1732 22.0526L79.4937 26.1875L76.4182 28.7058ZM95.9341 23.0673L89.7451 27.9519L82.4617 26.2162L78.3387 18.8688L79.8019 10.2417L85.9891 5.34061L91.9183 6.75382L82.4756 14.2142L87.6706 23.4864L97.1133 16.0342L95.9341 23.0673Z" fill="#9797C6"/>
</g>
<defs>
<clipPath id="clip0_24_2">
<rect width="100" height="79" fill="white"/>
</clipPath>
</defs>
</svg>
