<svg width="100" height="91" viewBox="0 0 100 91" fill="none" xmlns="http://www.w3.org/2000/svg">
<path d="M49.9706 66.3115C49.9107 66.5515 49.9107 66.8516 49.9107 67.1516C49.7908 69.252 49.5512 71.2923 49.2516 73.3927C48.952 75.433 48.4127 77.4134 47.514 79.2737C47.5739 79.3337 47.6338 79.5138 47.6338 79.6938C47.514 79.9338 47.3942 80.1139 47.3342 80.2339C47.2144 80.3539 47.0347 80.4739 46.9148 80.4739C39.605 79.8138 32.2951 79.5138 25.0452 79.5138C19.0535 79.5138 13.1218 79.6338 7.24993 79.8138C6.29126 79.8738 5.27267 79.9338 4.13426 79.9338C3.05575 79.9338 2.09709 79.9938 1.19834 80.0538C0.958668 80.0538 0.898751 79.9338 0.898751 79.6338C0.898751 79.3337 1.01858 79.2137 1.19834 79.2137C2.27684 79.1537 3.2355 78.7336 4.19417 78.0135C5.09292 77.2934 5.87184 76.4532 6.47101 75.433C7.07018 74.4129 7.54951 73.3327 7.8491 72.1325C8.14868 70.9323 8.32843 69.8521 8.32843 68.8319V9.2416C8.32843 6.78117 7.48959 4.86084 5.87184 3.4806C4.25409 2.04035 2.27684 1.32023 0 1.26022V0.360062C4.37392 0.600104 8.86768 0.660114 13.4813 0.660114C15.6383 0.660114 17.7953 0.600104 19.8924 0.420073C21.9895 0.300052 24.0865 0.120021 26.1836 0C26.4233 0 26.5431 0.120021 26.5431 0.360062C26.603 0.600104 26.4832 0.780135 26.3035 0.840145C24.2064 1.20021 22.349 2.10036 20.6114 3.4806C18.9337 4.86084 18.0949 6.72116 18.0949 9.06157V63.671C18.0949 65.7114 18.4544 67.5117 19.1734 69.0719C19.8924 70.6322 20.851 72.0125 22.1093 73.0926C23.3076 74.1728 24.7456 75.013 26.4233 75.5531C28.101 76.1532 29.8985 76.3932 31.8158 76.3932C35.5306 76.3932 39.0058 75.373 42.1215 73.2727C45.2372 71.1723 47.6338 68.4718 49.3115 65.0513L50.1503 65.3513C50.0904 65.7714 50.0305 66.0714 49.9706 66.3115Z" fill="#9797C6"/>
<path d="M90.8931 90.5656C87.5977 90.5656 84.2424 89.6055 80.8272 87.7452C77.4119 85.8848 74.0566 83.4844 70.7013 80.6039C67.346 77.7234 64.1105 74.5429 60.875 71.0023C57.6994 67.4617 54.5837 64.0411 51.6478 60.6205C49.4908 58.16 47.5136 55.9397 45.6562 53.8393C43.7988 51.799 42.0612 49.9386 40.3236 48.2583C40.3236 49.6986 40.3236 51.1388 40.2637 52.6391C40.2038 54.1394 40.2038 55.5796 40.2038 57.0198C40.1439 60.3204 40.0839 63.621 40.024 66.8616C39.9641 70.1021 39.9641 73.3427 39.9641 76.5832C39.9641 78.4436 40.024 79.9438 40.2038 81.024C40.3236 82.1042 40.6232 82.9443 41.0426 83.4844C41.462 84.0845 41.9414 84.5046 42.4806 84.8046C43.0798 85.1047 43.7988 85.4048 44.6376 85.6448C45.3566 85.8848 46.1355 86.1249 46.9743 86.4249C47.8132 86.725 48.5921 87.1451 49.371 87.5651C49.6107 87.6852 49.6706 87.8652 49.6107 88.1052C49.5508 88.3453 49.371 88.4053 49.1913 88.4053C46.9743 88.2852 44.7574 88.1052 42.4806 87.9852C40.2637 87.8652 38.0468 87.7452 35.8898 87.7452C33.7328 87.7452 31.5758 87.8052 29.4787 87.9852C27.3816 88.1052 25.2247 88.2852 23.0677 88.5253C22.828 88.5253 22.7082 88.4053 22.7082 88.1652C22.6482 87.9252 22.7681 87.7452 23.0077 87.6852C24.8052 87.3851 26.1833 86.965 27.2019 86.4249C28.2205 85.8848 28.9395 85.1647 29.4188 84.3246C29.8981 83.4844 30.1378 82.4042 30.2576 81.204C30.3176 80.0038 30.3775 78.5636 30.3775 76.8833V17.173C30.3775 16.0928 30.0779 15.1326 29.5386 14.2325C28.9994 13.3923 28.3403 12.6122 27.5614 12.0121C26.7825 11.412 25.8837 10.8719 24.8652 10.5118C23.8466 10.0917 22.8879 9.8517 21.9292 9.67167C21.6896 9.61166 21.6297 9.43163 21.6896 9.13158C21.7495 8.83152 21.8693 8.7115 22.0491 8.83152C23.8466 9.07157 25.7639 9.13158 27.7411 9.13158C29.1192 9.13158 30.4973 9.07157 31.8754 9.01156C33.2535 8.95155 34.6915 8.89153 36.1295 8.77151C37.6274 8.65149 39.2451 8.53147 40.9827 8.47146C42.7203 8.41145 44.338 8.47146 45.8359 8.53147C46.0756 8.53147 46.2553 8.53147 46.5549 8.59148C46.7946 8.65149 47.0343 8.6515 47.2739 8.6515C47.5136 8.6515 47.5735 8.77151 47.5735 9.07157C47.5735 9.37162 47.4537 9.49164 47.2739 9.49164C45.3566 9.61166 43.6789 10.4518 42.2409 11.8921C40.8629 13.3323 40.1439 15.0726 40.1439 17.173C40.2038 21.9138 40.2637 26.5346 40.3236 30.9153C40.3835 35.3561 40.4434 39.9169 40.5034 44.7177C41.6418 43.2775 43.1397 41.7172 44.9372 39.9769C46.7347 38.2366 48.4723 36.6163 50.09 34.996C52.1871 33.0757 54.2842 30.9754 56.5011 28.815C58.718 26.6546 60.6952 24.5542 62.4927 22.5139C64.2902 20.4735 65.7881 18.4932 66.9265 16.6329C68.065 14.7726 68.6641 13.0923 68.6641 11.532C68.6641 10.5718 68.4245 9.61166 67.8852 8.59148C67.6455 8.23142 67.7654 8.05139 68.1848 8.05139C70.3418 8.17141 72.4389 8.29143 74.5359 8.29143H80.7673C81.6061 8.29143 82.4449 8.29143 83.2837 8.35144C84.1226 8.41145 84.9015 8.41145 85.6804 8.41145L88.9159 8.53147C89.1556 8.53147 89.2155 8.6515 89.2155 8.95155C89.2155 9.19159 89.0956 9.31161 88.9159 9.37162C86.4593 9.67167 83.9428 10.5718 81.3664 12.1321C78.79 13.6924 76.2136 15.6127 73.5773 17.8331C71.0009 20.1135 68.4245 22.5739 65.848 25.2144C63.2716 27.8548 60.875 30.4953 58.5981 33.0157C56.8007 35.0561 55.0032 36.9764 53.2656 38.8367C51.528 40.697 49.8503 42.3173 48.3524 43.6975C49.7305 44.8978 51.1685 46.458 52.7862 48.2583C54.3441 50.0586 56.0817 51.979 57.9391 54.0793C60.0361 56.3597 62.2531 58.7602 64.5898 61.2806C66.9265 63.741 69.3232 66.2614 71.7798 68.6619C74.2364 71.1223 76.6929 73.4627 79.1495 75.6231C81.6061 77.8434 84.0627 79.7638 86.4593 81.3841C88.856 83.0643 91.1927 84.3246 93.4696 85.3447C95.7464 86.3049 97.8435 86.785 99.7608 86.785L100 87.5651C97.1844 89.6055 94.1286 90.5656 90.8931 90.5656Z" fill="#9797C6"/>
</svg>
