<svg width="12" height="16" viewBox="0 0 12 16" fill="none" xmlns="http://www.w3.org/2000/svg">
<path d="M5.99935 4.26667V7.46667V4.26667ZM5.99935 15.4667C4.58486 15.4667 3.22831 14.9048 2.22811 13.9046C1.22792 12.9044 0.666016 11.5478 0.666016 10.1333V5.86667C0.666016 4.45219 1.22792 3.09563 2.22811 2.09544C3.22831 1.09524 4.58486 0.53334 5.99935 0.53334C7.41384 0.53334 8.77039 1.09524 9.77059 2.09544C10.7708 3.09563 11.3327 4.45219 11.3327 5.86667V10.1333C11.3327 10.8337 11.1947 11.5272 10.9267 12.1743C10.6587 12.8214 10.2658 13.4093 9.77059 13.9046C9.27534 14.3998 8.6874 14.7927 8.04033 15.0607C7.39326 15.3287 6.69973 15.4667 5.99935 15.4667V15.4667Z" stroke="#9797C6" stroke-width="1.06667"/>
</svg>
