<svg width="17" height="12" viewBox="0 0 17 12" fill="none" xmlns="http://www.w3.org/2000/svg">
<path d="M16.6102 0.812637C16.729 0.343808 16.6102 0 16.0486 0H14.1881C13.7147 0 13.4984 0.297429 13.3796 0.624097C13.3796 0.624097 12.4337 3.36548 11.0933 5.143C10.6606 5.66022 10.4629 5.82356 10.2271 5.82356C10.1092 5.82356 9.9378 5.66023 9.9378 5.1914V0.812637C9.9378 0.250042 9.80121 0 9.40672 0H6.48324C6.18801 0 6.00985 0.260125 6.00985 0.50815C6.00985 1.0405 6.68006 1.1635 6.74878 2.66375V5.91833C6.74878 6.63115 6.64103 6.76122 6.40349 6.76122C5.77315 6.76122 4.2393 4.00975 3.329 0.860024C3.15169 0.248026 2.97269 0.00100864 2.4976 0.00100864H0.637974C0.106046 0.00100864 0 0.298438 0 0.625105C0 1.2119 0.630338 4.11561 2.93621 7.95597C4.47345 10.5784 6.63764 12 8.60925 12C9.79103 12 9.93695 11.6844 9.93695 11.14V9.15779C9.93695 8.52663 10.0498 8.3996 10.4239 8.3996C10.6988 8.3996 11.1722 8.56495 12.2759 9.82826C13.5366 11.3265 13.7453 11.999 14.4537 11.999H16.3133C16.8444 11.999 17.1099 11.6834 16.9572 11.0603C16.7901 10.4403 16.1877 9.53789 15.3886 8.47017C14.9542 7.8612 14.3052 7.20585 14.1075 6.87817C13.8318 6.45572 13.9116 6.2692 14.1075 5.89414C14.1084 5.89514 16.3744 2.10217 16.6102 0.812637V0.812637Z" fill="#E3E3F1"/>
</svg>
